<svg width="16" height="16" viewBox="0 0 16 16" fill="none" xmlns="http://www.w3.org/2000/svg">
<g clip-path="url(#clip0_390_83)">
<path fill-rule="evenodd" clip-rule="evenodd" d="M7 1C7 0.447715 7.44772 0 8 0C8.55229 0 9 0.447715 9 1V5.58574L12.2426 2.34309C12.6332 1.95257 13.2663 1.95257 13.6569 2.34309C14.0474 2.73362 14.0474 3.36678 13.6569 3.75731L10.4142 7H15C15.5523 7 16 7.44772 16 8C16 8.55229 15.5523 9 15 9H10.4142L13.6568 12.2427C14.0474 12.6332 14.0474 13.2664 13.6568 13.6569C13.2663 14.0474 12.6332 14.0474 12.2426 13.6569L9 10.4143V15C9 15.5523 8.55229 16 8 16C7.44772 16 7 15.5523 7 15V10.4142L3.75736 13.6568C3.36684 14.0473 2.73368 14.0473 2.34315 13.6568C1.95263 13.2663 1.95263 12.6331 2.34315 12.2426L5.58574 9H1C0.447715 9 0 8.55229 0 8C0 7.44772 0.447715 7 1 7H5.58574L2.34314 3.7574C1.95261 3.36688 1.95261 2.73371 2.34314 2.34319C2.73366 1.95266 3.36683 1.95266 3.75735 2.34319L7 5.58583V1ZM8 10C9.10457 10 10 9.10457 10 8C10 6.89543 9.10457 6 8 6C6.89543 6 6 6.89543 6 8C6 9.10457 6.89543 10 8 10Z" fill="#EF4B05"/>
</g>
<defs>
<clipPath id="clip0_390_83">
<rect width="16" height="16" rx="2" fill="white"/>
</clipPath>
</defs>
</svg>
