<svg width="16" height="16" viewBox="0 0 16 16" fill="none" xmlns="http://www.w3.org/2000/svg">
<g clip-path="url(#clip0_389_72)">
<path fill-rule="evenodd" clip-rule="evenodd" d="M2 0C0.895431 0 0 0.895431 0 2V14C0 15.1046 0.895431 16 2 16H14C15.1046 16 16 15.1046 16 14V2C16 0.895431 15.1046 0 14 0H2ZM12.4385 3.51091C12.9976 4.32557 13.4312 5.8673 13.3591 8.50349C13.3591 8.50349 14.0175 8.93294 13.9996 9.34367V9.35642C13.9978 9.39521 13.9919 9.4337 13.9818 9.47123C13.8944 9.80627 13.5228 9.93554 13.4974 9.94403H13.4931C13.5928 10.0633 13.6691 10.2003 13.718 10.348C13.7293 10.3808 13.7386 10.4143 13.746 10.4483C13.751 10.4713 13.7553 10.4951 13.7595 10.5189C13.7737 10.6098 13.7752 10.7023 13.7638 10.7936C13.7576 10.8359 13.7491 10.878 13.7383 10.9194C13.7375 10.9223 13.7362 10.9252 13.7349 10.9281L13.7348 10.9284C13.7323 10.934 13.7299 10.9397 13.7299 10.9458L13.7239 10.9636L13.7129 10.9891C13.7078 11.0011 13.7018 11.0147 13.6942 11.0291C13.2821 11.8682 12.3083 12.4084 11.4484 12.6942C9.18896 13.446 6.94397 13.4298 4.68453 12.6781C3.87616 12.4054 2.43886 11.7857 2.18578 10.916C2.03899 10.3743 2.43098 9.94064 2.43098 9.94064C2.43098 9.94064 2.02542 9.71273 2.00081 9.4304C1.97451 9.0758 2.59473 8.50859 2.59473 8.50859C2.48189 4.36468 3.58657 2.92244 4.49442 2.75662C5.40227 2.59079 6.84464 5.59689 6.84464 5.59689C7.58846 5.52588 8.33732 5.52588 9.08117 5.59689C9.08117 5.59689 10.4158 2.81954 11.3236 2.75151C11.3473 2.74981 11.3712 2.74981 11.3949 2.75151L11.4314 2.75662C11.7555 2.81614 12.1076 3.03724 12.4232 3.48709C12.4288 3.49471 12.4339 3.50266 12.4385 3.51091ZM6.44951 8.789C6.55013 8.29343 6.34088 7.83263 5.98211 7.75976C5.62334 7.68689 5.25089 8.02958 5.15024 8.52515C5.04959 9.02072 5.25887 9.48152 5.61764 9.55439C5.97641 9.62726 6.34886 9.28457 6.44951 8.789ZM10.0177 7.75976C9.65888 7.83263 9.44963 8.29343 9.55028 8.789C9.65093 9.28457 10.0234 9.62726 10.3821 9.55439C10.7409 9.48152 10.9502 9.02072 10.8495 8.52515C10.7489 8.02958 10.3765 7.68689 10.0177 7.75976ZM9.17495 10.009C9.17495 9.58967 8.64941 9.25001 7.99994 9.25001C7.3505 9.25001 6.82496 9.58967 6.82496 10.0101C6.82496 10.2701 7.1945 10.654 7.65254 10.7647C7.8884 10.8361 8.13911 10.8426 8.37833 10.7835C8.80652 10.6728 9.17495 10.269 9.17495 10.009ZM9.82577 10.4505C9.84932 10.462 9.86846 10.4806 9.8813 10.5035C9.93623 10.6031 9.97124 10.7124 9.98444 10.8253C9.99104 10.8812 9.99416 10.9374 9.99371 10.9936L9.99353 10.9978C9.98915 11.0556 9.98144 11.113 9.97043 11.1699L9.96989 11.1724C9.94094 11.2942 9.88745 11.4091 9.81305 11.5097C9.73658 11.612 9.63941 11.697 9.52787 11.7592L9.52679 11.7598C9.32303 11.8684 9.09302 11.918 8.86259 11.9032L8.86064 11.903C8.75813 11.8931 8.65634 11.8772 8.55569 11.8554L8.55233 11.8546C8.45462 11.8276 8.35865 11.7946 8.26502 11.7558L8.26379 11.7552C8.23877 11.7442 8.21798 11.7255 8.20439 11.7018C8.19083 11.6781 8.18519 11.6507 8.18834 11.6236C8.19149 11.5964 8.20325 11.571 8.22191 11.551C8.24054 11.5311 8.26508 11.5176 8.29193 11.5126L8.2976 11.5116H8.30489C8.39687 11.4966 8.48963 11.4867 8.58269 11.4819C8.62436 11.4772 8.66552 11.4708 8.70764 11.4642L8.71037 11.4638C8.75309 11.4571 8.79698 11.4503 8.84093 11.4457C8.98781 11.423 9.12944 11.3741 9.25913 11.3015C9.36491 11.232 9.44918 11.1343 9.50237 11.0195C9.56717 10.8711 9.61397 10.7156 9.64184 10.5562V10.5461L9.64319 10.5397C9.64862 10.5141 9.66173 10.4907 9.68078 10.4727C9.69983 10.4547 9.72389 10.443 9.74981 10.439C9.7757 10.435 9.80219 10.439 9.82577 10.4505Z" fill="#3C34E2"/>
</g>
<defs>
<clipPath id="clip0_389_72">
<rect width="16" height="16" fill="white"/>
</clipPath>
</defs>
</svg>
