<svg width="16" height="16" viewBox="0 0 16 16" fill="none" xmlns="http://www.w3.org/2000/svg">
<g clip-path="url(#clip0_392_13)">
<path d="M0 3.6H1.2C7.38559 3.6 12.4 8.61441 12.4 14.8V16H14.8C15.4627 16 16 15.4627 16 14.8C16 6.62619 9.37381 0 1.2 0C0.537258 0 0 0.537258 0 1.2V3.6Z" fill="url(#paint0_radial_392_13)"/>
<path d="M12.8 14.8H16C16 15.4628 15.4627 16 14.8 16H12.8V14.8Z" fill="url(#paint1_linear_392_13)"/>
<path d="M1.2 0L1.2 3.2H0L8.74228e-08 1.2C1.16392e-07 0.537258 0.537258 -2.89694e-08 1.2 0Z" fill="url(#paint2_linear_392_13)"/>
<path d="M0 3.19995H1.2C7.6065 3.19995 12.8 8.39345 12.8 14.8V16H9.2V14.8C9.2 10.3817 5.61828 6.79995 1.2 6.79995H0V3.19995Z" fill="url(#paint3_radial_392_13)"/>
<path d="M9.60001 14.8H12.8V16H9.60001V14.8Z" fill="url(#paint4_linear_392_13)"/>
<path d="M1.39876e-07 6.39995L0 3.19995L1.2 3.19995L1.2 6.39995H1.39876e-07Z" fill="url(#paint5_linear_392_13)"/>
<path d="M0 8.40002C0 9.06277 0.537258 9.60002 1.2 9.60002C4.07188 9.60002 6.4 11.9281 6.4 14.8C6.4 15.4628 6.93726 16 7.6 16H9.6V14.8C9.6 10.1608 5.83919 6.40002 1.2 6.40002H0V8.40002Z" fill="url(#paint6_radial_392_13)"/>
<path d="M6.39999 14.8H9.59999V16H7.59999C6.93725 16 6.39999 15.4628 6.39999 14.8Z" fill="url(#paint7_radial_392_13)"/>
<path d="M1.2 9.60002C0.537258 9.60002 1.16392e-07 9.06277 8.74228e-08 8.40002L0 6.40002L1.2 6.40002L1.2 9.60002Z" fill="url(#paint8_radial_392_13)"/>
</g>
<defs>
<radialGradient id="paint0_radial_392_13" cx="0" cy="0" r="1" gradientUnits="userSpaceOnUse" gradientTransform="translate(1.2 14.8) rotate(-90) scale(14.8)">
<stop offset="0.770277" stop-color="#FF4000"/>
<stop offset="1" stop-color="#8754C9"/>
</radialGradient>
<linearGradient id="paint1_linear_392_13" x1="12.6" y1="15.4" x2="16" y2="15.4" gradientUnits="userSpaceOnUse">
<stop stop-color="#FF4000"/>
<stop offset="1" stop-color="#8754C9"/>
</linearGradient>
<linearGradient id="paint2_linear_392_13" x1="0.6" y1="-2.6226e-07" x2="0.599999" y2="3.4" gradientUnits="userSpaceOnUse">
<stop stop-color="#8754C9"/>
<stop offset="1" stop-color="#FF4000"/>
</linearGradient>
<radialGradient id="paint3_radial_392_13" cx="0" cy="0" r="1" gradientUnits="userSpaceOnUse" gradientTransform="translate(1.2 14.8) rotate(-90) scale(11.6)">
<stop offset="0.723929" stop-color="#FFF700"/>
<stop offset="1" stop-color="#FF9901"/>
</radialGradient>
<linearGradient id="paint4_linear_392_13" x1="9.60001" y1="15.4" x2="12.8" y2="15.4" gradientUnits="userSpaceOnUse">
<stop stop-color="#FFF700"/>
<stop offset="1" stop-color="#FF9901"/>
</linearGradient>
<linearGradient id="paint5_linear_392_13" x1="0.600001" y1="6.39995" x2="0.6" y2="3.19995" gradientUnits="userSpaceOnUse">
<stop stop-color="#FFF700"/>
<stop offset="1" stop-color="#FF9901"/>
</linearGradient>
<radialGradient id="paint6_radial_392_13" cx="0" cy="0" r="1" gradientUnits="userSpaceOnUse" gradientTransform="translate(1.2 14.8) rotate(-90) scale(8.4)">
<stop offset="0.59513" stop-color="#00AAFF"/>
<stop offset="1" stop-color="#01DA40"/>
</radialGradient>
<radialGradient id="paint7_radial_392_13" cx="0" cy="0" r="1" gradientUnits="userSpaceOnUse" gradientTransform="translate(6.19999 15.4) scale(3.4 9.06667)">
<stop stop-color="#00AAFF"/>
<stop offset="1" stop-color="#01DA40"/>
</radialGradient>
<radialGradient id="paint8_radial_392_13" cx="0" cy="0" r="1" gradientUnits="userSpaceOnUse" gradientTransform="translate(0.599999 9.80002) rotate(-90) scale(3.4 64.4741)">
<stop stop-color="#00AAFF"/>
<stop offset="1" stop-color="#01DA40"/>
</radialGradient>
<clipPath id="clip0_392_13">
<rect width="16" height="16" rx="2" fill="white"/>
</clipPath>
</defs>
</svg>
