<svg width="16" height="16" viewBox="0 0 16 16" fill="none" xmlns="http://www.w3.org/2000/svg">
<g clip-path="url(#clip0_389_45)">
<path fill-rule="evenodd" clip-rule="evenodd" d="M2.38545 3.81976C2.38545 3.11961 1.85051 2.55005 1.19272 2.55005C0.535147 2.55005 0 3.11961 0 3.81976C0 4.52014 0.535147 5.0897 1.19272 5.0897C1.85051 5.0897 2.38545 4.52014 2.38545 3.81976ZM4.09647 7.99772C4.09647 7.29735 3.56132 6.72778 2.90374 6.72778C2.24617 6.72778 1.71102 7.29735 1.71102 7.99772C1.71102 8.69787 2.24617 9.26744 2.90374 9.26744C3.56132 9.26744 4.09647 8.69787 4.09647 7.99772ZM5.0972 7.9972C5.0972 7.29706 5.63235 6.72726 6.28992 6.72726C6.9475 6.72726 7.48265 7.29706 7.48265 7.9972C7.48265 8.69758 6.9475 9.26715 6.28992 9.26715C5.63235 9.26715 5.0972 8.69758 5.0972 7.9972ZM9.19908 3.81999C9.19908 3.11961 8.66415 2.55005 8.00636 2.55005C7.34878 2.55005 6.81385 3.11961 6.81385 3.81999C6.81385 4.52014 7.34878 5.0897 8.00636 5.0897C8.66415 5.0897 9.19908 4.52014 9.19908 3.81999ZM3.3994 12.1806C3.3994 11.4804 3.93455 10.9109 4.59212 10.9109C5.2497 10.9109 5.78484 11.4804 5.78484 12.1806C5.78484 12.8809 5.2497 13.4507 4.59212 13.4507C3.93455 13.4507 3.3994 12.8809 3.3994 12.1806ZM13.0793 6.72726C12.4218 6.72726 11.8866 7.29706 11.8866 7.9972C11.8866 8.69758 12.4218 9.26715 13.0793 9.26715C13.7369 9.26715 14.2721 8.69758 14.2721 7.9972C14.2721 7.29706 13.7369 6.72726 13.0793 6.72726ZM9.69312 6.72778C10.3507 6.72778 10.8856 7.29735 10.8856 7.99772C10.8856 8.69787 10.3507 9.26744 9.69312 9.26744C9.03533 9.26744 8.5004 8.69787 8.5004 7.99772C8.5004 7.29735 9.03533 6.72778 9.69312 6.72778ZM11.389 10.9109C10.7315 10.9109 10.1963 11.4804 10.1963 12.1806C10.1963 12.8809 10.7315 13.4507 11.389 13.4507C12.0466 13.4507 12.5818 12.8809 12.5818 12.1806C12.5818 11.4804 12.0466 10.9109 11.389 10.9109ZM13.6146 3.81976C13.6146 3.11961 14.1497 2.55005 14.8073 2.55005C15.4649 2.55005 16 3.11961 16 3.81976C16 4.52014 15.4649 5.08993 14.8073 5.08993C14.1497 5.08993 13.6146 4.52014 13.6146 3.81976Z" fill="#2E4DA7"/>
</g>
<defs>
<clipPath id="clip0_389_45">
<rect width="16" height="16" rx="2" fill="white"/>
</clipPath>
</defs>
</svg>
