<svg width="16" height="16" viewBox="0 0 16 16" fill="none" xmlns="http://www.w3.org/2000/svg">
<path d="M6.3429 11.8065L11.4382 11.7935C12.2764 11.7504 13.0646 11.3549 13.6481 10.6815C14.2371 10.002 14.5618 9.11032 14.5618 8.17025C14.5618 6.88948 13.9507 5.69193 12.9709 5.04626L12.6374 4.82649L13.4964 3.56879L13.647 3.67208L13.7827 3.76521C15.1706 4.71771 16 6.37653 16 8.19026C16 11.0521 13.9027 13.3906 11.3199 13.3906H4.43854L4.45004 11.9215L4.48426 11.872L7.1981 7.94686L9.41348 4.58178L4.68008 4.58313C2.88667 4.58313 1.42475 6.19503 1.42475 8.18804C1.42475 9.45219 2.03924 10.6375 3.02942 11.29L3.36218 11.5103L2.50493 12.7669L2.35485 12.6663L2.21748 12.5743C0.828964 11.6213 0 9.97339 0 8.17283C0 5.32595 2.0976 3 4.68008 3H11.5076L11.4959 4.35011L11.4618 4.39952L8.71103 8.38115L6.3429 11.8065Z" fill="#4536D7"/>
</svg>
